# xmcd
#
# Track frame offsets:
#	150
#	31757
#	43545
#	70072
#	106569
#	141021
#	185034
#
# Disc length: 2819 seconds
#
# Revision: 0
# Processed by: cddbd v1.5.2PL0 Copyright (c) Steve Scherf et al.
# Submitted via: audiograbber 1.83.01
#
DISCID=530b0107
DTITLE=Grateful Dead - 92-06-22 Star Lake Amphitheatre, Burgettstown PA
DYEAR=1900
DGENRE=
TTITLE0=Space
TTITLE1=Spanish Jam
TTITLE2=The Other One
TTITLE3=Stella Blue
TTITLE4=Going Down The Road Feeling Bad
TTITLE5=Around and Around
TTITLE6=Knockin' On Heaven's Door
EXTD=
EXTT0=
EXTT1=
EXTT2=
EXTT3=
EXTT4=
EXTT5=
EXTT6=
PLAYORDER=
